<svg xmlns="http://www.w3.org/2000/svg" viewBox="0 0 24 24" width="24" height="24"><path fill="#EA4335" d="M19.4 12.3c0-.4 0-.8-.1-1.2H12v2.5h4.2c-.2 1-.7 1.8-1.5 2.4v1.9h2.5c1.4-1.3 2.2-3.3 2.2-5.6z"/><path fill="#4285F4" d="M12 20c2.1 0 3.9-.7 5.2-1.9l-2.5-1.9c-.7.5-1.6.8-2.7.8-2.1 0-3.8-1.4-4.5-3.3H5v2c1.3 2.6 4 4.3 7 4.3z"/><path fill="#FBBC05" d="M7.5 13.7c-.2-.5-.3-1.1-.3-1.7s.1-1.2.3-1.7v-2H5c-.6 1.1-.9 2.4-.9 3.7s.3 2.6.9 3.7l2.5-2z"/><path fill="#34A853" d="M12 7.7c1.1 0 2.2.4 3 1.2l2.3-2.3C15.9 5.3 14.1 4.5 12 4.5 9 4.5 6.3 6.2 5 8.8l2.5 2c.7-1.9 2.4-3.1 4.5-3.1z"/></svg>